<svg xmlns="http://www.w3.org/2000/svg" width="24" height="21" viewBox="0 0 24 21">
  <metadata><?xpacket begin="﻿" id="W5M0MpCehiHzreSzNTczkc9d"?>
<x:xmpmeta xmlns:x="adobe:ns:meta/" x:xmptk="Adobe XMP Core 5.6-c138 79.159824, 2016/09/14-01:09:01        ">
   <rdf:RDF xmlns:rdf="http://www.w3.org/1999/02/22-rdf-syntax-ns#">
      <rdf:Description rdf:about=""/>
   </rdf:RDF>
</x:xmpmeta>
                                                                                                    
                                                                                                    
                                                                                                    
                                                                                                    
                                                                                                    
                                                                                                    
                                                                                                    
                                                                                                    
                                                                                                    
                                                                                                    
                                                                                                    
                                                                                                    
                                                                                                    
                                                                                                    
                                                                                                    
                                                                                                    
                                                                                                    
                                                                                                    
                                                                                                    
                                                                                                    
                           
<?xpacket end="w"?></metadata>
<defs>
    <style>
      .cls-1 {
        fill: #fff;
        fill-rule: evenodd;
      }
    </style>
  </defs>
  <path id="Inbox_Icon" data-name="Inbox Icon" class="cls-1" d="M729,1175.02H711a3.011,3.011,0,0,1-3.013-2.99v-7.52a1.492,1.492,0,0,1,.075-0.47l2.769-8.3a2.632,2.632,0,0,1,2.426-1.73h13.485a2.631,2.631,0,0,1,2.427,1.73l2.768,8.3a1.521,1.521,0,0,1,.075.47v7.52A3.012,3.012,0,0,1,729,1175.02Zm-2.571-18.01H713.573l-2,6h4.177a1.6,1.6,0,0,1,.53.11c0.051,0.02.1,0.05,0.15,0.07a1.686,1.686,0,0,1,.3.21,0.8,0.8,0,0,1,.127.12,1.474,1.474,0,0,1,.211.31c0.027,0.05.051,0.09,0.075,0.14a0.142,0.142,0,0,0,.024.04,3.005,3.005,0,0,0,5.664,0,0.114,0.114,0,0,1,.026-0.04,1.193,1.193,0,0,1,.075-0.14,1.333,1.333,0,0,1,.21-0.31,0.793,0.793,0,0,1,.126-0.12,1.679,1.679,0,0,1,.3-0.21l0.151-.07a1.581,1.581,0,0,1,.528-0.11h4.179Zm2.583,9h-3.819a5.991,5.991,0,0,1-10.382,0H710.99v6.02c0-.01,0-0.01.01-0.01h18c0.011,0,.011,0,0.011.01v-6.02Z" transform="translate(-708 -1154)"/>
</svg>
