<svg xmlns="http://www.w3.org/2000/svg" width="24" height="24" viewBox="0 0 24 24">
  <metadata><?xpacket begin="﻿" id="W5M0MpCehiHzreSzNTczkc9d"?>
<x:xmpmeta xmlns:x="adobe:ns:meta/" x:xmptk="Adobe XMP Core 5.6-c138 79.159824, 2016/09/14-01:09:01        ">
   <rdf:RDF xmlns:rdf="http://www.w3.org/1999/02/22-rdf-syntax-ns#">
      <rdf:Description rdf:about=""/>
   </rdf:RDF>
</x:xmpmeta>
                                                                                                    
                                                                                                    
                                                                                                    
                                                                                                    
                                                                                                    
                                                                                                    
                                                                                                    
                                                                                                    
                                                                                                    
                                                                                                    
                                                                                                    
                                                                                                    
                                                                                                    
                                                                                                    
                                                                                                    
                                                                                                    
                                                                                                    
                                                                                                    
                                                                                                    
                                                                                                    
                           
<?xpacket end="w"?></metadata>
<defs>
    <style>
      .cls-1 {
        fill: #fff;
        fill-rule: evenodd;
      }
    </style>
  </defs>
  <path id="Notifications_Icon" data-name="Notifications Icon" class="cls-1" d="M1131.93,1172.97a1.517,1.517,0,0,1-1.44,1.03h-7.5a3,3,0,1,1-5.99,0h-7.5a1.5,1.5,0,0,1-.9-2.7,5.977,5.977,0,0,0,2.41-4.8V1162a9,9,0,1,1,17.99,0v4.5a6,6,0,0,0,2.4,4.8A1.5,1.5,0,0,1,1131.93,1172.97Zm-5.68-6.46v-4.5a6.249,6.249,0,0,0-12.49,0v4.5a8.724,8.724,0,0,1-1.25,4.5h14.99A8.724,8.724,0,0,1,1126.25,1166.51Z" transform="translate(-1108 -1153)"/>
</svg>
