<svg xmlns="http://www.w3.org/2000/svg" xmlns:xlink="http://www.w3.org/1999/xlink" width="87.844" height="14.94" viewBox="0 0 87.844 14.94">
  <metadata><?xpacket begin="﻿" id="W5M0MpCehiHzreSzNTczkc9d"?>
<x:xmpmeta xmlns:x="adobe:ns:meta/" x:xmptk="Adobe XMP Core 5.6-c138 79.159824, 2016/09/14-01:09:01        ">
   <rdf:RDF xmlns:rdf="http://www.w3.org/1999/02/22-rdf-syntax-ns#">
      <rdf:Description rdf:about=""/>
   </rdf:RDF>
</x:xmpmeta>
                                                                                                    
                                                                                                    
                                                                                                    
                                                                                                    
                                                                                                    
                                                                                                    
                                                                                                    
                                                                                                    
                                                                                                    
                                                                                                    
                                                                                                    
                                                                                                    
                                                                                                    
                                                                                                    
                                                                                                    
                                                                                                    
                                                                                                    
                                                                                                    
                                                                                                    
                                                                                                    
                           
<?xpacket end="w"?></metadata>
<defs>
    <style>
      .cls-1 {
        fill-rule: evenodd;
        fill: url(#linear-gradient);
      }
    </style>
    <linearGradient id="linear-gradient" x1="171.546" y1="5064" x2="186.486" y2="5078.94" gradientUnits="userSpaceOnUse">
      <stop offset="0" stop-color="#ff8e64"/>
      <stop offset="1" stop-color="#ffe641"/>
    </linearGradient>
  </defs>
  <path id="Stars" class="cls-1" d="M210.629,5078.94a1,1,0,0,1-.6-0.19,0.982,0.982,0,0,1-.382-1.06l1.162-4.23-3.482-2.75a0.985,0.985,0,0,1-.329-1.08,1.008,1.008,0,0,1,.913-0.69l4.476-.22,1.6-4.09a1.02,1.02,0,0,1,1.893,0l1.605,4.09,4.475,0.22a1.008,1.008,0,0,1,.912.69,0.985,0.985,0,0,1-.328,1.08l-3.475,2.75,1.162,4.22a1,1,0,0,1-.383,1.07,1.042,1.042,0,0,1-1.148.03l-3.76-2.39-3.76,2.39a1.062,1.062,0,0,1-.55.16h0Zm-17.968,0a1,1,0,0,1-.6-0.19,0.984,0.984,0,0,1-.382-1.06l1.162-4.23-3.482-2.75a0.985,0.985,0,0,1-.329-1.08,1.008,1.008,0,0,1,.913-0.69l4.476-.22,1.6-4.09a1.02,1.02,0,0,1,1.893,0l1.6,4.09,4.475,0.22a1.008,1.008,0,0,1,.912.69,0.983,0.983,0,0,1-.328,1.08l-3.475,2.75,1.162,4.22a1,1,0,0,1-.383,1.07,1.042,1.042,0,0,1-1.148.03l-3.76-2.39-3.759,2.39a1.068,1.068,0,0,1-.551.16h0Zm-17.968,0a1,1,0,0,1-.6-0.19,0.981,0.981,0,0,1-.381-1.06l1.161-4.23-3.482-2.75a0.985,0.985,0,0,1-.329-1.08,1.008,1.008,0,0,1,.913-0.69l4.476-.22,1.6-4.09a1.02,1.02,0,0,1,1.893,0l1.6,4.09,4.475,0.22a1.008,1.008,0,0,1,.912.69,0.984,0.984,0,0,1-.327,1.08l-3.476,2.75,1.162,4.22a1,1,0,0,1-.383,1.07,1.042,1.042,0,0,1-1.148.03l-3.76-2.39-3.759,2.39a1.065,1.065,0,0,1-.551.16h0Zm-17.968,0a1,1,0,0,1-.6-0.19,0.981,0.981,0,0,1-.381-1.06l1.161-4.23-3.482-2.75a0.985,0.985,0,0,1-.329-1.08,1.009,1.009,0,0,1,.913-0.69l4.476-.22,1.6-4.09a1.02,1.02,0,0,1,1.893,0l1.605,4.09,4.475,0.22a1.008,1.008,0,0,1,.912.69,0.984,0.984,0,0,1-.327,1.08l-3.476,2.75,1.162,4.22a1,1,0,0,1-.383,1.07,1.042,1.042,0,0,1-1.148.03l-3.76-2.39-3.759,2.39a1.065,1.065,0,0,1-.551.16h0Zm-17.968,0a1,1,0,0,1-.6-0.19,0.981,0.981,0,0,1-.381-1.06l1.161-4.23-3.482-2.75a0.985,0.985,0,0,1-.329-1.08,1.009,1.009,0,0,1,.913-0.69l4.476-.22,1.6-4.09a1.02,1.02,0,0,1,1.893,0l1.6,4.09,4.475,0.22a1.008,1.008,0,0,1,.912.69,0.984,0.984,0,0,1-.327,1.08l-3.476,2.75,1.162,4.22a1,1,0,0,1-.383,1.07,1.042,1.042,0,0,1-1.148.03l-3.76-2.39-3.759,2.39a1.065,1.065,0,0,1-.551.16h0Z" transform="translate(-135.094 -5064)"/>
</svg>
